<svg width="2880" height="1620" viewBox="0 0 2880 1620" fill="none" xmlns="http://www.w3.org/2000/svg">
<rect width="2880" height="1620" fill="white"/>
<rect width="400" height="400" fill="black"/>
<path d="M32.4091 196V184.364H33.8182V189.545H40.0227V184.364H41.4318V196H40.0227V190.795H33.8182V196H32.4091ZM44.071 196V187.273H45.3665V188.636H45.4801C45.6619 188.17 45.9555 187.809 46.3608 187.551C46.7661 187.29 47.2528 187.159 47.821 187.159C48.3968 187.159 48.8759 187.29 49.2585 187.551C49.6449 187.809 49.946 188.17 50.1619 188.636H50.2528C50.4763 188.186 50.8116 187.828 51.2585 187.562C51.7055 187.294 52.2415 187.159 52.8665 187.159C53.6468 187.159 54.285 187.403 54.7812 187.892C55.2775 188.377 55.5256 189.133 55.5256 190.159V196H54.1847V190.159C54.1847 189.515 54.0085 189.055 53.6562 188.778C53.304 188.502 52.8892 188.364 52.4119 188.364C51.7983 188.364 51.3229 188.549 50.9858 188.92C50.6487 189.288 50.4801 189.754 50.4801 190.318V196H49.1165V190.023C49.1165 189.527 48.9555 189.127 48.6335 188.824C48.3116 188.517 47.8968 188.364 47.3892 188.364C47.0407 188.364 46.715 188.456 46.4119 188.642C46.1127 188.828 45.8703 189.085 45.6847 189.415C45.5028 189.741 45.4119 190.117 45.4119 190.545V196H44.071ZM57.9773 196V187.273H59.2727V188.636H59.3864C59.5682 188.17 59.8617 187.809 60.267 187.551C60.6723 187.29 61.1591 187.159 61.7273 187.159C62.303 187.159 62.7822 187.29 63.1648 187.551C63.5511 187.809 63.8523 188.17 64.0682 188.636H64.1591C64.3826 188.186 64.7178 187.828 65.1648 187.562C65.6117 187.294 66.1477 187.159 66.7727 187.159C67.553 187.159 68.1913 187.403 68.6875 187.892C69.1837 188.377 69.4318 189.133 69.4318 190.159V196H68.0909V190.159C68.0909 189.515 67.9148 189.055 67.5625 188.778C67.2102 188.502 66.7955 188.364 66.3182 188.364C65.7045 188.364 65.2292 188.549 64.892 188.92C64.5549 189.288 64.3864 189.754 64.3864 190.318V196H63.0227V190.023C63.0227 189.527 62.8617 189.127 62.5398 188.824C62.2178 188.517 61.803 188.364 61.2955 188.364C60.947 188.364 60.6212 188.456 60.3182 188.642C60.0189 188.828 59.7765 189.085 59.5909 189.415C59.4091 189.741 59.3182 190.117 59.3182 190.545V196H57.9773ZM73.8835 194.409L73.7926 195.023C73.7282 195.455 73.6297 195.917 73.4972 196.409C73.3684 196.902 73.2339 197.366 73.0938 197.801C72.9536 198.237 72.8381 198.583 72.7472 198.841H71.7244C71.7737 198.598 71.8381 198.278 71.9176 197.881C71.9972 197.483 72.0767 197.038 72.1562 196.545C72.2396 196.057 72.3078 195.557 72.3608 195.045L72.429 194.409H73.8835ZM81.7315 199.273C81.5043 199.273 81.3016 199.254 81.1236 199.216C80.9455 199.182 80.8224 199.148 80.7543 199.114L81.0952 197.932C81.4209 198.015 81.7088 198.045 81.9588 198.023C82.2088 198 82.4304 197.888 82.6236 197.688C82.8205 197.491 83.0005 197.17 83.1634 196.727L83.4134 196.045L80.1861 187.273H81.6406L84.0497 194.227H84.1406L86.5497 187.273H88.0043L84.2997 197.273C84.133 197.723 83.9266 198.097 83.6804 198.392C83.4342 198.691 83.1482 198.913 82.8224 199.057C82.5005 199.201 82.1368 199.273 81.7315 199.273ZM93.0071 196.182C92.2192 196.182 91.5279 195.994 90.9332 195.619C90.3423 195.244 89.8802 194.72 89.5469 194.045C89.2173 193.371 89.0526 192.583 89.0526 191.682C89.0526 190.773 89.2173 189.979 89.5469 189.301C89.8802 188.623 90.3423 188.097 90.9332 187.722C91.5279 187.347 92.2192 187.159 93.0071 187.159C93.795 187.159 94.4844 187.347 95.0753 187.722C95.67 188.097 96.1321 188.623 96.4616 189.301C96.795 189.979 96.9616 190.773 96.9616 191.682C96.9616 192.583 96.795 193.371 96.4616 194.045C96.1321 194.72 95.67 195.244 95.0753 195.619C94.4844 195.994 93.795 196.182 93.0071 196.182ZM93.0071 194.977C93.6056 194.977 94.098 194.824 94.4844 194.517C94.8707 194.21 95.1567 193.807 95.3423 193.307C95.5279 192.807 95.6207 192.265 95.6207 191.682C95.6207 191.098 95.5279 190.555 95.3423 190.051C95.1567 189.547 94.8707 189.14 94.4844 188.83C94.098 188.519 93.6056 188.364 93.0071 188.364C92.4086 188.364 91.9162 188.519 91.5298 188.83C91.1435 189.14 90.8575 189.547 90.6719 190.051C90.4863 190.555 90.3935 191.098 90.3935 191.682C90.3935 192.265 90.4863 192.807 90.6719 193.307C90.8575 193.807 91.1435 194.21 91.5298 194.517C91.9162 194.824 92.4086 194.977 93.0071 194.977ZM104.509 192.432V187.273H105.849V196H104.509V194.523H104.418C104.213 194.966 103.895 195.343 103.463 195.653C103.031 195.96 102.486 196.114 101.827 196.114C101.281 196.114 100.796 195.994 100.372 195.756C99.9479 195.513 99.6146 195.15 99.3722 194.665C99.1297 194.176 99.0085 193.561 99.0085 192.818V187.273H100.349V192.727C100.349 193.364 100.527 193.871 100.884 194.25C101.243 194.629 101.702 194.818 102.259 194.818C102.592 194.818 102.931 194.733 103.276 194.562C103.624 194.392 103.916 194.131 104.151 193.778C104.389 193.426 104.509 192.977 104.509 192.432ZM116.601 187.273V188.409H112.078V187.273H116.601ZM113.396 185.182H114.737V193.5C114.737 193.879 114.792 194.163 114.902 194.352C115.016 194.538 115.16 194.663 115.334 194.727C115.512 194.788 115.699 194.818 115.896 194.818C116.044 194.818 116.165 194.811 116.26 194.795C116.355 194.777 116.43 194.761 116.487 194.75L116.76 195.955C116.669 195.989 116.542 196.023 116.379 196.057C116.216 196.095 116.01 196.114 115.76 196.114C115.381 196.114 115.01 196.032 114.646 195.869C114.286 195.706 113.987 195.458 113.749 195.125C113.514 194.792 113.396 194.371 113.396 193.864V185.182ZM122.07 196.182C121.282 196.182 120.59 195.994 119.996 195.619C119.405 195.244 118.943 194.72 118.609 194.045C118.28 193.371 118.115 192.583 118.115 191.682C118.115 190.773 118.28 189.979 118.609 189.301C118.943 188.623 119.405 188.097 119.996 187.722C120.59 187.347 121.282 187.159 122.07 187.159C122.857 187.159 123.547 187.347 124.138 187.722C124.732 188.097 125.195 188.623 125.524 189.301C125.857 189.979 126.024 190.773 126.024 191.682C126.024 192.583 125.857 193.371 125.524 194.045C125.195 194.72 124.732 195.244 124.138 195.619C123.547 195.994 122.857 196.182 122.07 196.182ZM122.07 194.977C122.668 194.977 123.161 194.824 123.547 194.517C123.933 194.21 124.219 193.807 124.405 193.307C124.59 192.807 124.683 192.265 124.683 191.682C124.683 191.098 124.59 190.555 124.405 190.051C124.219 189.547 123.933 189.14 123.547 188.83C123.161 188.519 122.668 188.364 122.07 188.364C121.471 188.364 120.979 188.519 120.592 188.83C120.206 189.14 119.92 189.547 119.734 190.051C119.549 190.555 119.456 191.098 119.456 191.682C119.456 192.265 119.549 192.807 119.734 193.307C119.92 193.807 120.206 194.21 120.592 194.517C120.979 194.824 121.471 194.977 122.07 194.977ZM131.616 196.182C130.829 196.182 130.137 195.994 129.543 195.619C128.952 195.244 128.49 194.72 128.156 194.045C127.827 193.371 127.662 192.583 127.662 191.682C127.662 190.773 127.827 189.979 128.156 189.301C128.49 188.623 128.952 188.097 129.543 187.722C130.137 187.347 130.829 187.159 131.616 187.159C132.404 187.159 133.094 187.347 133.685 187.722C134.279 188.097 134.741 188.623 135.071 189.301C135.404 189.979 135.571 190.773 135.571 191.682C135.571 192.583 135.404 193.371 135.071 194.045C134.741 194.72 134.279 195.244 133.685 195.619C133.094 195.994 132.404 196.182 131.616 196.182ZM131.616 194.977C132.215 194.977 132.707 194.824 133.094 194.517C133.48 194.21 133.766 193.807 133.952 193.307C134.137 192.807 134.23 192.265 134.23 191.682C134.23 191.098 134.137 190.555 133.952 190.051C133.766 189.547 133.48 189.14 133.094 188.83C132.707 188.519 132.215 188.364 131.616 188.364C131.018 188.364 130.526 188.519 130.139 188.83C129.753 189.14 129.467 189.547 129.281 190.051C129.096 190.555 129.003 191.098 129.003 191.682C129.003 192.265 129.096 192.807 129.281 193.307C129.467 193.807 129.753 194.21 130.139 194.517C130.526 194.824 131.018 194.977 131.616 194.977ZM138.868 192.818L138.845 191.159H139.118L142.936 187.273H144.595L140.527 191.386H140.413L138.868 192.818ZM137.618 196V184.364H138.959V196H137.618ZM143.163 196L139.754 191.682L140.709 190.75L144.868 196H143.163ZM154.616 187.273V188.409H150.094V187.273H154.616ZM151.412 185.182H152.753V193.5C152.753 193.879 152.808 194.163 152.918 194.352C153.031 194.538 153.175 194.663 153.349 194.727C153.527 194.788 153.715 194.818 153.912 194.818C154.06 194.818 154.181 194.811 154.276 194.795C154.37 194.777 154.446 194.761 154.503 194.75L154.776 195.955C154.685 195.989 154.558 196.023 154.395 196.057C154.232 196.095 154.026 196.114 153.776 196.114C153.397 196.114 153.026 196.032 152.662 195.869C152.302 195.706 152.003 195.458 151.764 195.125C151.529 194.792 151.412 194.371 151.412 193.864V185.182ZM158.162 190.75V196H156.821V184.364H158.162V188.636H158.276C158.48 188.186 158.787 187.828 159.196 187.562C159.609 187.294 160.158 187.159 160.844 187.159C161.438 187.159 161.959 187.278 162.406 187.517C162.853 187.752 163.2 188.114 163.446 188.602C163.696 189.087 163.821 189.705 163.821 190.455V196H162.48V190.545C162.48 189.852 162.3 189.316 161.94 188.938C161.584 188.555 161.09 188.364 160.457 188.364C160.018 188.364 159.624 188.456 159.276 188.642C158.931 188.828 158.658 189.098 158.457 189.455C158.26 189.811 158.162 190.242 158.162 190.75ZM169.933 196.182C169.092 196.182 168.367 195.996 167.757 195.625C167.151 195.25 166.683 194.727 166.354 194.057C166.028 193.383 165.865 192.598 165.865 191.705C165.865 190.811 166.028 190.023 166.354 189.341C166.683 188.655 167.142 188.121 167.729 187.739C168.32 187.352 169.009 187.159 169.797 187.159C170.251 187.159 170.7 187.235 171.143 187.386C171.587 187.538 171.99 187.784 172.354 188.125C172.717 188.462 173.007 188.909 173.223 189.466C173.439 190.023 173.547 190.708 173.547 191.523V192.091H166.82V190.932H172.183C172.183 190.439 172.085 190 171.888 189.614C171.695 189.227 171.418 188.922 171.058 188.699C170.702 188.475 170.282 188.364 169.797 188.364C169.263 188.364 168.801 188.496 168.411 188.761C168.024 189.023 167.727 189.364 167.518 189.784C167.31 190.205 167.206 190.655 167.206 191.136V191.909C167.206 192.568 167.32 193.127 167.547 193.585C167.778 194.04 168.098 194.386 168.507 194.625C168.916 194.86 169.392 194.977 169.933 194.977C170.286 194.977 170.604 194.928 170.888 194.83C171.176 194.727 171.424 194.576 171.632 194.375C171.84 194.17 172.001 193.917 172.115 193.614L173.411 193.977C173.274 194.417 173.045 194.803 172.723 195.136C172.401 195.466 172.003 195.723 171.53 195.909C171.056 196.091 170.524 196.182 169.933 196.182ZM180.087 196V187.273H181.382V188.591H181.473C181.632 188.159 181.92 187.809 182.337 187.54C182.753 187.271 183.223 187.136 183.746 187.136C183.844 187.136 183.967 187.138 184.115 187.142C184.263 187.146 184.375 187.152 184.45 187.159V188.523C184.405 188.511 184.301 188.494 184.138 188.472C183.979 188.445 183.81 188.432 183.632 188.432C183.208 188.432 182.829 188.521 182.496 188.699C182.166 188.873 181.905 189.116 181.712 189.426C181.522 189.733 181.428 190.083 181.428 190.477V196H180.087ZM186.04 196V187.273H187.381V196H186.04ZM186.722 185.818C186.46 185.818 186.235 185.729 186.045 185.551C185.86 185.373 185.767 185.159 185.767 184.909C185.767 184.659 185.86 184.445 186.045 184.267C186.235 184.089 186.46 184 186.722 184C186.983 184 187.206 184.089 187.392 184.267C187.581 184.445 187.676 184.659 187.676 184.909C187.676 185.159 187.581 185.373 187.392 185.551C187.206 185.729 186.983 185.818 186.722 185.818ZM196.018 189.227L194.814 189.568C194.738 189.367 194.626 189.172 194.479 188.983C194.335 188.79 194.138 188.631 193.888 188.506C193.638 188.381 193.318 188.318 192.928 188.318C192.393 188.318 191.948 188.441 191.592 188.688C191.24 188.93 191.064 189.239 191.064 189.614C191.064 189.947 191.185 190.21 191.428 190.403C191.67 190.597 192.049 190.758 192.564 190.886L193.859 191.205C194.64 191.394 195.221 191.684 195.604 192.074C195.986 192.46 196.178 192.958 196.178 193.568C196.178 194.068 196.034 194.515 195.746 194.909C195.462 195.303 195.064 195.614 194.553 195.841C194.041 196.068 193.446 196.182 192.768 196.182C191.878 196.182 191.142 195.989 190.558 195.602C189.975 195.216 189.606 194.652 189.45 193.909L190.723 193.591C190.844 194.061 191.073 194.413 191.411 194.648C191.751 194.883 192.196 195 192.746 195C193.371 195 193.867 194.867 194.234 194.602C194.606 194.333 194.791 194.011 194.791 193.636C194.791 193.333 194.685 193.08 194.473 192.875C194.261 192.667 193.935 192.511 193.496 192.409L192.041 192.068C191.242 191.879 190.655 191.585 190.28 191.188C189.909 190.786 189.723 190.284 189.723 189.682C189.723 189.189 189.861 188.754 190.138 188.375C190.418 187.996 190.799 187.699 191.28 187.483C191.765 187.267 192.314 187.159 192.928 187.159C193.791 187.159 194.469 187.348 194.962 187.727C195.458 188.106 195.81 188.606 196.018 189.227ZM199.446 192.818L199.423 191.159H199.696L203.514 187.273H205.173L201.105 191.386H200.991L199.446 192.818ZM198.196 196V184.364H199.537V196H198.196ZM203.741 196L200.332 191.682L201.287 190.75L205.446 196H203.741ZM208.899 194.409L208.808 195.023C208.744 195.455 208.645 195.917 208.513 196.409C208.384 196.902 208.25 197.366 208.109 197.801C207.969 198.237 207.854 198.583 207.763 198.841H206.74C206.789 198.598 206.854 198.278 206.933 197.881C207.013 197.483 207.092 197.038 207.172 196.545C207.255 196.057 207.323 195.557 207.376 195.045L207.445 194.409H208.899ZM217.224 190.75V196H215.884V187.273H217.179V188.636H217.293C217.497 188.193 217.808 187.837 218.224 187.568C218.641 187.295 219.179 187.159 219.838 187.159C220.429 187.159 220.946 187.28 221.389 187.523C221.832 187.761 222.177 188.125 222.423 188.614C222.67 189.098 222.793 189.712 222.793 190.455V196H221.452V190.545C221.452 189.86 221.274 189.326 220.918 188.943C220.562 188.557 220.073 188.364 219.452 188.364C219.024 188.364 218.641 188.456 218.304 188.642C217.971 188.828 217.707 189.098 217.514 189.455C217.321 189.811 217.224 190.242 217.224 190.75ZM228.788 196.182C228 196.182 227.309 195.994 226.714 195.619C226.124 195.244 225.661 194.72 225.328 194.045C224.999 193.371 224.834 192.583 224.834 191.682C224.834 190.773 224.999 189.979 225.328 189.301C225.661 188.623 226.124 188.097 226.714 187.722C227.309 187.347 228 187.159 228.788 187.159C229.576 187.159 230.266 187.347 230.857 187.722C231.451 188.097 231.913 188.623 232.243 189.301C232.576 189.979 232.743 190.773 232.743 191.682C232.743 192.583 232.576 193.371 232.243 194.045C231.913 194.72 231.451 195.244 230.857 195.619C230.266 195.994 229.576 196.182 228.788 196.182ZM228.788 194.977C229.387 194.977 229.879 194.824 230.266 194.517C230.652 194.21 230.938 193.807 231.124 193.307C231.309 192.807 231.402 192.265 231.402 191.682C231.402 191.098 231.309 190.555 231.124 190.051C230.938 189.547 230.652 189.14 230.266 188.83C229.879 188.519 229.387 188.364 228.788 188.364C228.19 188.364 227.697 188.519 227.311 188.83C226.925 189.14 226.639 189.547 226.453 190.051C226.268 190.555 226.175 191.098 226.175 191.682C226.175 192.265 226.268 192.807 226.453 193.307C226.639 193.807 226.925 194.21 227.311 194.517C227.697 194.824 228.19 194.977 228.788 194.977ZM236.47 196L233.811 187.273H235.22L237.107 193.955H237.197L239.061 187.273H240.493L242.334 193.932H242.425L244.311 187.273H245.72L243.061 196H241.743L239.834 189.295H239.697L237.788 196H236.47ZM255.788 187.273V188.409H251.266V187.273H255.788ZM252.584 185.182H253.925V193.5C253.925 193.879 253.98 194.163 254.089 194.352C254.203 194.538 254.347 194.663 254.521 194.727C254.699 194.788 254.887 194.818 255.084 194.818C255.232 194.818 255.353 194.811 255.447 194.795C255.542 194.777 255.618 194.761 255.675 194.75L255.947 195.955C255.857 195.989 255.73 196.023 255.567 196.057C255.404 196.095 255.197 196.114 254.947 196.114C254.569 196.114 254.197 196.032 253.834 195.869C253.474 195.706 253.175 195.458 252.936 195.125C252.701 194.792 252.584 194.371 252.584 193.864V185.182ZM257.805 196V187.273H259.101V188.591H259.192C259.351 188.159 259.639 187.809 260.055 187.54C260.472 187.271 260.942 187.136 261.464 187.136C261.563 187.136 261.686 187.138 261.834 187.142C261.982 187.146 262.093 187.152 262.169 187.159V188.523C262.124 188.511 262.019 188.494 261.857 188.472C261.697 188.445 261.529 188.432 261.351 188.432C260.927 188.432 260.548 188.521 260.214 188.699C259.885 188.873 259.624 189.116 259.43 189.426C259.241 189.733 259.146 190.083 259.146 190.477V196H257.805ZM264.888 199.273C264.661 199.273 264.458 199.254 264.28 199.216C264.102 199.182 263.979 199.148 263.911 199.114L264.251 197.932C264.577 198.015 264.865 198.045 265.115 198.023C265.365 198 265.587 197.888 265.78 197.688C265.977 197.491 266.157 197.17 266.32 196.727L266.57 196.045L263.342 187.273H264.797L267.206 194.227H267.297L269.706 187.273H271.161L267.456 197.273C267.289 197.723 267.083 198.097 266.837 198.392C266.59 198.691 266.304 198.913 265.979 199.057C265.657 199.201 265.293 199.273 264.888 199.273ZM281.226 187.273V188.409H276.703V187.273H281.226ZM278.021 185.182H279.362V193.5C279.362 193.879 279.417 194.163 279.527 194.352C279.641 194.538 279.785 194.663 279.959 194.727C280.137 194.788 280.324 194.818 280.521 194.818C280.669 194.818 280.79 194.811 280.885 194.795C280.98 194.777 281.055 194.761 281.112 194.75L281.385 195.955C281.294 195.989 281.167 196.023 281.004 196.057C280.841 196.095 280.635 196.114 280.385 196.114C280.006 196.114 279.635 196.032 279.271 195.869C278.911 195.706 278.612 195.458 278.374 195.125C278.139 194.792 278.021 194.371 278.021 193.864V185.182ZM284.771 190.75V196H283.43V184.364H284.771V188.636H284.885C285.089 188.186 285.396 187.828 285.805 187.562C286.218 187.294 286.768 187.159 287.453 187.159C288.048 187.159 288.569 187.278 289.016 187.517C289.463 187.752 289.809 188.114 290.055 188.602C290.305 189.087 290.43 189.705 290.43 190.455V196H289.089V190.545C289.089 189.852 288.91 189.316 288.55 188.938C288.194 188.555 287.699 188.364 287.067 188.364C286.627 188.364 286.233 188.456 285.885 188.642C285.54 188.828 285.268 189.098 285.067 189.455C284.87 189.811 284.771 190.242 284.771 190.75ZM296.543 196.182C295.702 196.182 294.976 195.996 294.366 195.625C293.76 195.25 293.293 194.727 292.963 194.057C292.637 193.383 292.474 192.598 292.474 191.705C292.474 190.811 292.637 190.023 292.963 189.341C293.293 188.655 293.751 188.121 294.338 187.739C294.929 187.352 295.618 187.159 296.406 187.159C296.861 187.159 297.31 187.235 297.753 187.386C298.196 187.538 298.599 187.784 298.963 188.125C299.327 188.462 299.616 188.909 299.832 189.466C300.048 190.023 300.156 190.708 300.156 191.523V192.091H293.429V190.932H298.793C298.793 190.439 298.694 190 298.497 189.614C298.304 189.227 298.027 188.922 297.668 188.699C297.312 188.475 296.891 188.364 296.406 188.364C295.872 188.364 295.41 188.496 295.02 188.761C294.634 189.023 294.336 189.364 294.128 189.784C293.92 190.205 293.815 190.655 293.815 191.136V191.909C293.815 192.568 293.929 193.127 294.156 193.585C294.387 194.04 294.707 194.386 295.116 194.625C295.526 194.86 296.001 194.977 296.543 194.977C296.895 194.977 297.213 194.928 297.497 194.83C297.785 194.727 298.033 194.576 298.241 194.375C298.45 194.17 298.611 193.917 298.724 193.614L300.02 193.977C299.884 194.417 299.654 194.803 299.332 195.136C299.01 195.466 298.613 195.723 298.139 195.909C297.666 196.091 297.134 196.182 296.543 196.182ZM307.039 188.156H308.281L308.32 189.602C308.784 189.044 309.24 188.641 309.688 188.391C310.141 188.141 310.596 188.016 311.055 188.016C311.867 188.016 312.482 188.279 312.898 188.805C313.32 189.331 313.516 190.112 313.484 191.148H312.109C312.125 190.461 312.023 189.964 311.805 189.656C311.591 189.344 311.276 189.188 310.859 189.188C310.677 189.188 310.492 189.221 310.305 189.289C310.122 189.352 309.932 189.456 309.734 189.602C309.542 189.742 309.336 189.924 309.117 190.148C308.898 190.372 308.664 190.643 308.414 190.961V196H307.039V188.156ZM321.82 196H320.602L320.555 194.734C320.32 195.005 320.096 195.232 319.883 195.414C319.674 195.591 319.466 195.734 319.258 195.844C319.049 195.953 318.839 196.029 318.625 196.07C318.417 196.117 318.195 196.141 317.961 196.141C317.154 196.141 316.544 195.904 316.133 195.43C315.721 194.956 315.516 194.24 315.516 193.281V188.156H316.875V193.172C316.875 194.375 317.328 194.977 318.234 194.977C318.401 194.977 318.562 194.953 318.719 194.906C318.88 194.854 319.047 194.768 319.219 194.648C319.396 194.523 319.583 194.357 319.781 194.148C319.984 193.94 320.211 193.677 320.461 193.359V188.156H321.82V196ZM330.523 193.859C330.523 194.135 330.477 194.383 330.383 194.602C330.289 194.82 330.161 195.016 330 195.188C329.839 195.354 329.651 195.497 329.438 195.617C329.224 195.737 328.995 195.836 328.75 195.914C328.51 195.992 328.263 196.049 328.008 196.086C327.753 196.122 327.503 196.141 327.258 196.141C326.727 196.141 326.237 196.117 325.789 196.07C325.346 196.023 324.911 195.948 324.484 195.844V194.594C324.943 194.724 325.398 194.823 325.852 194.891C326.305 194.958 326.755 194.992 327.203 194.992C327.854 194.992 328.336 194.904 328.648 194.727C328.961 194.549 329.117 194.297 329.117 193.969C329.117 193.828 329.091 193.703 329.039 193.594C328.992 193.479 328.904 193.372 328.773 193.273C328.643 193.169 328.44 193.062 328.164 192.953C327.893 192.844 327.521 192.719 327.047 192.578C326.693 192.474 326.365 192.357 326.062 192.227C325.766 192.091 325.508 191.932 325.289 191.75C325.07 191.568 324.898 191.354 324.773 191.109C324.648 190.865 324.586 190.576 324.586 190.242C324.586 190.023 324.635 189.784 324.734 189.523C324.839 189.263 325.013 189.021 325.258 188.797C325.503 188.573 325.833 188.388 326.25 188.242C326.667 188.091 327.188 188.016 327.812 188.016C328.12 188.016 328.461 188.034 328.836 188.07C329.211 188.102 329.602 188.159 330.008 188.242V189.453C329.581 189.349 329.174 189.273 328.789 189.227C328.409 189.174 328.078 189.148 327.797 189.148C327.458 189.148 327.172 189.174 326.938 189.227C326.708 189.279 326.521 189.352 326.375 189.445C326.234 189.534 326.133 189.641 326.07 189.766C326.008 189.885 325.977 190.016 325.977 190.156C325.977 190.297 326.003 190.424 326.055 190.539C326.112 190.654 326.214 190.766 326.359 190.875C326.51 190.979 326.719 191.086 326.984 191.195C327.25 191.299 327.596 191.414 328.023 191.539C328.487 191.674 328.878 191.818 329.195 191.969C329.513 192.115 329.771 192.279 329.969 192.461C330.167 192.643 330.307 192.849 330.391 193.078C330.479 193.307 330.523 193.568 330.523 193.859ZM340.164 196H338.297L334.641 191.797V196H333.281V184.961H334.641V191.742L338.164 188.156H339.961L336.281 191.773L340.164 196ZM346.602 199.281C344.201 197.057 343 194.599 343 191.906C343 191.276 343.062 190.648 343.188 190.023C343.318 189.393 343.523 188.763 343.805 188.133C344.091 187.503 344.466 186.872 344.93 186.242C345.398 185.612 345.966 184.987 346.633 184.367L347.422 185.172C345.401 187.167 344.391 189.378 344.391 191.805C344.391 193.013 344.646 194.174 345.156 195.289C345.667 196.404 346.422 197.456 347.422 198.445L346.602 199.281ZM352.305 184.367C354.706 186.591 355.906 189.065 355.906 191.789C355.906 192.352 355.849 192.935 355.734 193.539C355.62 194.143 355.424 194.763 355.148 195.398C354.872 196.029 354.5 196.669 354.031 197.32C353.568 197.971 352.982 198.625 352.273 199.281L351.484 198.477C352.5 197.471 353.258 196.422 353.758 195.328C354.258 194.234 354.508 193.089 354.508 191.891C354.508 189.411 353.5 187.182 351.484 185.203L352.305 184.367ZM31.7727 204.614V203.364H40.5V204.614H36.8409V215H35.4318V204.614H31.7727ZM43.8338 209.75V215H42.4929V203.364H43.8338V207.636H43.9474C44.152 207.186 44.4588 206.828 44.8679 206.562C45.2808 206.294 45.83 206.159 46.5156 206.159C47.1103 206.159 47.6312 206.278 48.0781 206.517C48.5251 206.752 48.8717 207.114 49.1179 207.602C49.3679 208.087 49.4929 208.705 49.4929 209.455V215H48.152V209.545C48.152 208.852 47.9721 208.316 47.6122 207.938C47.2562 207.555 46.7618 207.364 46.1293 207.364C45.6899 207.364 45.2959 207.456 44.9474 207.642C44.6027 207.828 44.33 208.098 44.1293 208.455C43.9323 208.811 43.8338 209.242 43.8338 209.75ZM51.946 215V206.273H53.2869V215H51.946ZM52.6278 204.818C52.3665 204.818 52.1411 204.729 51.9517 204.551C51.7661 204.373 51.6733 204.159 51.6733 203.909C51.6733 203.659 51.7661 203.445 51.9517 203.267C52.1411 203.089 52.3665 203 52.6278 203C52.8892 203 53.1127 203.089 53.2983 203.267C53.4877 203.445 53.5824 203.659 53.5824 203.909C53.5824 204.159 53.4877 204.373 53.2983 204.551C53.1127 204.729 52.8892 204.818 52.6278 204.818ZM57.0838 209.75V215H55.7429V206.273H57.0384V207.636H57.152C57.3565 207.193 57.6671 206.837 58.0838 206.568C58.5005 206.295 59.0384 206.159 59.6974 206.159C60.2884 206.159 60.8054 206.28 61.2486 206.523C61.6918 206.761 62.0365 207.125 62.2827 207.614C62.5289 208.098 62.652 208.712 62.652 209.455V215H61.3111V209.545C61.3111 208.86 61.133 208.326 60.777 207.943C60.4209 207.557 59.9323 207.364 59.3111 207.364C58.883 207.364 58.5005 207.456 58.1634 207.642C57.83 207.828 57.5668 208.098 57.3736 208.455C57.1804 208.811 57.0838 209.242 57.0838 209.75ZM66.3523 211.818L66.3295 210.159H66.6023L70.4205 206.273H72.0795L68.0114 210.386H67.8977L66.3523 211.818ZM65.1023 215V203.364H66.4432V215H65.1023ZM70.6477 215L67.2386 210.682L68.1932 209.75L72.3523 215H70.6477ZM80.2827 215L77.6236 206.273H79.0327L80.919 212.955H81.0099L82.8736 206.273H84.3054L86.1463 212.932H86.2372L88.1236 206.273H89.5327L86.8736 215H85.5554L83.6463 208.295H83.5099L81.6009 215H80.2827ZM92.6463 209.75V215H91.3054V203.364H92.6463V207.636H92.7599C92.9645 207.186 93.2713 206.828 93.6804 206.562C94.0933 206.294 94.6425 206.159 95.3281 206.159C95.9228 206.159 96.4437 206.278 96.8906 206.517C97.3376 206.752 97.6842 207.114 97.9304 207.602C98.1804 208.087 98.3054 208.705 98.3054 209.455V215H96.9645V209.545C96.9645 208.852 96.7846 208.316 96.4247 207.938C96.0687 207.555 95.5743 207.364 94.9418 207.364C94.5024 207.364 94.1084 207.456 93.7599 207.642C93.4152 207.828 93.1425 208.098 92.9418 208.455C92.7448 208.811 92.6463 209.242 92.6463 209.75ZM104.418 215.182C103.577 215.182 102.851 214.996 102.241 214.625C101.635 214.25 101.168 213.727 100.838 213.057C100.512 212.383 100.349 211.598 100.349 210.705C100.349 209.811 100.512 209.023 100.838 208.341C101.168 207.655 101.626 207.121 102.213 206.739C102.804 206.352 103.493 206.159 104.281 206.159C104.736 206.159 105.185 206.235 105.628 206.386C106.071 206.538 106.474 206.784 106.838 207.125C107.202 207.462 107.491 207.909 107.707 208.466C107.923 209.023 108.031 209.708 108.031 210.523V211.091H101.304V209.932H106.668C106.668 209.439 106.569 209 106.372 208.614C106.179 208.227 105.902 207.922 105.543 207.699C105.187 207.475 104.766 207.364 104.281 207.364C103.747 207.364 103.285 207.496 102.895 207.761C102.509 208.023 102.211 208.364 102.003 208.784C101.795 209.205 101.69 209.655 101.69 210.136V210.909C101.69 211.568 101.804 212.127 102.031 212.585C102.262 213.04 102.582 213.386 102.991 213.625C103.401 213.86 103.876 213.977 104.418 213.977C104.77 213.977 105.088 213.928 105.372 213.83C105.66 213.727 105.908 213.576 106.116 213.375C106.325 213.17 106.486 212.917 106.599 212.614L107.895 212.977C107.759 213.417 107.529 213.803 107.207 214.136C106.885 214.466 106.488 214.723 106.014 214.909C105.541 215.091 105.009 215.182 104.418 215.182ZM110.071 215V206.273H111.366V207.591H111.457C111.616 207.159 111.904 206.809 112.321 206.54C112.738 206.271 113.207 206.136 113.73 206.136C113.829 206.136 113.952 206.138 114.099 206.142C114.247 206.146 114.359 206.152 114.435 206.159V207.523C114.389 207.511 114.285 207.494 114.122 207.472C113.963 207.445 113.795 207.432 113.616 207.432C113.192 207.432 112.813 207.521 112.48 207.699C112.151 207.873 111.889 208.116 111.696 208.426C111.507 208.733 111.412 209.083 111.412 209.477V215H110.071ZM119.418 215.182C118.577 215.182 117.851 214.996 117.241 214.625C116.635 214.25 116.168 213.727 115.838 213.057C115.512 212.383 115.349 211.598 115.349 210.705C115.349 209.811 115.512 209.023 115.838 208.341C116.168 207.655 116.626 207.121 117.213 206.739C117.804 206.352 118.493 206.159 119.281 206.159C119.736 206.159 120.185 206.235 120.628 206.386C121.071 206.538 121.474 206.784 121.838 207.125C122.202 207.462 122.491 207.909 122.707 208.466C122.923 209.023 123.031 209.708 123.031 210.523V211.091H116.304V209.932H121.668C121.668 209.439 121.569 209 121.372 208.614C121.179 208.227 120.902 207.922 120.543 207.699C120.187 207.475 119.766 207.364 119.281 207.364C118.747 207.364 118.285 207.496 117.895 207.761C117.509 208.023 117.211 208.364 117.003 208.784C116.795 209.205 116.69 209.655 116.69 210.136V210.909C116.69 211.568 116.804 212.127 117.031 212.585C117.262 213.04 117.582 213.386 117.991 213.625C118.401 213.86 118.876 213.977 119.418 213.977C119.77 213.977 120.088 213.928 120.372 213.83C120.66 213.727 120.908 213.576 121.116 213.375C121.325 213.17 121.486 212.917 121.599 212.614L122.895 212.977C122.759 213.417 122.529 213.803 122.207 214.136C121.885 214.466 121.488 214.723 121.014 214.909C120.541 215.091 120.009 215.182 119.418 215.182ZM129.571 215V206.273H130.912V215H129.571ZM130.253 204.818C129.991 204.818 129.766 204.729 129.577 204.551C129.391 204.373 129.298 204.159 129.298 203.909C129.298 203.659 129.391 203.445 129.577 203.267C129.766 203.089 129.991 203 130.253 203C130.514 203 130.738 203.089 130.923 203.267C131.113 203.445 131.207 203.659 131.207 203.909C131.207 204.159 131.113 204.373 130.923 204.551C130.738 204.729 130.514 204.818 130.253 204.818ZM137.163 206.273V207.409H132.641V206.273H137.163ZM133.959 204.182H135.3V212.5C135.3 212.879 135.355 213.163 135.464 213.352C135.578 213.538 135.722 213.663 135.896 213.727C136.074 213.788 136.262 213.818 136.459 213.818C136.607 213.818 136.728 213.811 136.822 213.795C136.917 213.777 136.993 213.761 137.05 213.75L137.322 214.955C137.232 214.989 137.105 215.023 136.942 215.057C136.779 215.095 136.572 215.114 136.322 215.114C135.944 215.114 135.572 215.032 135.209 214.869C134.849 214.706 134.55 214.458 134.311 214.125C134.076 213.792 133.959 213.371 133.959 212.864V204.182ZM147.339 215.182C146.499 215.182 145.773 214.996 145.163 214.625C144.557 214.25 144.089 213.727 143.76 213.057C143.434 212.383 143.271 211.598 143.271 210.705C143.271 209.811 143.434 209.023 143.76 208.341C144.089 207.655 144.548 207.121 145.135 206.739C145.726 206.352 146.415 206.159 147.203 206.159C147.658 206.159 148.107 206.235 148.55 206.386C148.993 206.538 149.396 206.784 149.76 207.125C150.124 207.462 150.413 207.909 150.629 208.466C150.845 209.023 150.953 209.708 150.953 210.523V211.091H144.226V209.932H149.589C149.589 209.439 149.491 209 149.294 208.614C149.101 208.227 148.824 207.922 148.464 207.699C148.108 207.475 147.688 207.364 147.203 207.364C146.669 207.364 146.207 207.496 145.817 207.761C145.43 208.023 145.133 208.364 144.925 208.784C144.716 209.205 144.612 209.655 144.612 210.136V210.909C144.612 211.568 144.726 212.127 144.953 212.585C145.184 213.04 145.504 213.386 145.913 213.625C146.322 213.86 146.798 213.977 147.339 213.977C147.692 213.977 148.01 213.928 148.294 213.83C148.582 213.727 148.83 213.576 149.038 213.375C149.247 213.17 149.408 212.917 149.521 212.614L150.817 212.977C150.68 213.417 150.451 213.803 150.129 214.136C149.807 214.466 149.41 214.723 148.936 214.909C148.463 215.091 147.93 215.182 147.339 215.182ZM154.334 209.75V215H152.993V206.273H154.288V207.636H154.402C154.607 207.193 154.917 206.837 155.334 206.568C155.75 206.295 156.288 206.159 156.947 206.159C157.538 206.159 158.055 206.28 158.499 206.523C158.942 206.761 159.286 207.125 159.533 207.614C159.779 208.098 159.902 208.712 159.902 209.455V215H158.561V209.545C158.561 208.86 158.383 208.326 158.027 207.943C157.671 207.557 157.182 207.364 156.561 207.364C156.133 207.364 155.75 207.456 155.413 207.642C155.08 207.828 154.817 208.098 154.624 208.455C154.43 208.811 154.334 209.242 154.334 209.75ZM166.148 206.273V207.409H161.625V206.273H166.148ZM162.943 204.182H164.284V212.5C164.284 212.879 164.339 213.163 164.449 213.352C164.563 213.538 164.706 213.663 164.881 213.727C165.059 213.788 165.246 213.818 165.443 213.818C165.591 213.818 165.712 213.811 165.807 213.795C165.902 213.777 165.977 213.761 166.034 213.75L166.307 214.955C166.216 214.989 166.089 215.023 165.926 215.057C165.763 215.095 165.557 215.114 165.307 215.114C164.928 215.114 164.557 215.032 164.193 214.869C163.833 214.706 163.534 214.458 163.295 214.125C163.061 213.792 162.943 213.371 162.943 212.864V204.182ZM171.73 215.182C170.889 215.182 170.164 214.996 169.554 214.625C168.948 214.25 168.48 213.727 168.151 213.057C167.825 212.383 167.662 211.598 167.662 210.705C167.662 209.811 167.825 209.023 168.151 208.341C168.48 207.655 168.938 207.121 169.526 206.739C170.116 206.352 170.806 206.159 171.594 206.159C172.048 206.159 172.497 206.235 172.94 206.386C173.384 206.538 173.787 206.784 174.151 207.125C174.514 207.462 174.804 207.909 175.02 208.466C175.236 209.023 175.344 209.708 175.344 210.523V211.091H168.616V209.932H173.98C173.98 209.439 173.882 209 173.685 208.614C173.491 208.227 173.215 207.922 172.855 207.699C172.499 207.475 172.079 207.364 171.594 207.364C171.06 207.364 170.598 207.496 170.207 207.761C169.821 208.023 169.524 208.364 169.315 208.784C169.107 209.205 169.003 209.655 169.003 210.136V210.909C169.003 211.568 169.116 212.127 169.344 212.585C169.575 213.04 169.895 213.386 170.304 213.625C170.713 213.86 171.188 213.977 171.73 213.977C172.082 213.977 172.401 213.928 172.685 213.83C172.973 213.727 173.221 213.576 173.429 213.375C173.637 213.17 173.798 212.917 173.912 212.614L175.207 212.977C175.071 213.417 174.842 213.803 174.52 214.136C174.198 214.466 173.8 214.723 173.327 214.909C172.853 215.091 172.321 215.182 171.73 215.182ZM177.384 215V206.273H178.679V207.591H178.77C178.929 207.159 179.217 206.809 179.634 206.54C180.05 206.271 180.52 206.136 181.043 206.136C181.141 206.136 181.264 206.138 181.412 206.142C181.56 206.146 181.671 206.152 181.747 206.159V207.523C181.702 207.511 181.598 207.494 181.435 207.472C181.276 207.445 181.107 207.432 180.929 207.432C180.505 207.432 180.126 207.521 179.793 207.699C179.463 207.873 179.202 208.116 179.009 208.426C178.819 208.733 178.724 209.083 178.724 209.477V215H177.384ZM189.518 208.227L188.314 208.568C188.238 208.367 188.126 208.172 187.979 207.983C187.835 207.79 187.638 207.631 187.388 207.506C187.138 207.381 186.818 207.318 186.428 207.318C185.893 207.318 185.448 207.441 185.092 207.688C184.74 207.93 184.564 208.239 184.564 208.614C184.564 208.947 184.685 209.21 184.928 209.403C185.17 209.597 185.549 209.758 186.064 209.886L187.359 210.205C188.14 210.394 188.721 210.684 189.104 211.074C189.486 211.46 189.678 211.958 189.678 212.568C189.678 213.068 189.534 213.515 189.246 213.909C188.962 214.303 188.564 214.614 188.053 214.841C187.541 215.068 186.946 215.182 186.268 215.182C185.378 215.182 184.642 214.989 184.058 214.602C183.475 214.216 183.106 213.652 182.95 212.909L184.223 212.591C184.344 213.061 184.573 213.413 184.911 213.648C185.251 213.883 185.696 214 186.246 214C186.871 214 187.367 213.867 187.734 213.602C188.106 213.333 188.291 213.011 188.291 212.636C188.291 212.333 188.185 212.08 187.973 211.875C187.761 211.667 187.435 211.511 186.996 211.409L185.541 211.068C184.742 210.879 184.155 210.585 183.78 210.188C183.409 209.786 183.223 209.284 183.223 208.682C183.223 208.189 183.361 207.754 183.638 207.375C183.918 206.996 184.299 206.699 184.78 206.483C185.265 206.267 185.814 206.159 186.428 206.159C187.291 206.159 187.969 206.348 188.462 206.727C188.958 207.106 189.31 207.606 189.518 208.227ZM198.764 215.205C198.211 215.205 197.709 215.1 197.259 214.892C196.808 214.68 196.45 214.375 196.185 213.977C195.92 213.576 195.787 213.091 195.787 212.523C195.787 212.023 195.885 211.617 196.082 211.307C196.279 210.992 196.543 210.746 196.872 210.568C197.202 210.39 197.565 210.258 197.963 210.17C198.365 210.08 198.768 210.008 199.173 209.955C199.704 209.886 200.134 209.835 200.463 209.801C200.796 209.763 201.039 209.701 201.19 209.614C201.346 209.527 201.423 209.375 201.423 209.159V209.114C201.423 208.553 201.27 208.117 200.963 207.807C200.66 207.496 200.2 207.341 199.582 207.341C198.942 207.341 198.44 207.481 198.077 207.761C197.713 208.042 197.457 208.341 197.31 208.659L196.037 208.205C196.264 207.674 196.567 207.261 196.946 206.966C197.329 206.667 197.745 206.458 198.196 206.341C198.651 206.22 199.098 206.159 199.537 206.159C199.817 206.159 200.139 206.193 200.503 206.261C200.87 206.326 201.224 206.46 201.565 206.665C201.91 206.869 202.196 207.178 202.423 207.591C202.651 208.004 202.764 208.557 202.764 209.25V215H201.423V213.818H201.355C201.264 214.008 201.113 214.21 200.901 214.426C200.688 214.642 200.406 214.826 200.054 214.977C199.702 215.129 199.272 215.205 198.764 215.205ZM198.969 214C199.499 214 199.946 213.896 200.31 213.688C200.677 213.479 200.954 213.21 201.139 212.881C201.329 212.551 201.423 212.205 201.423 211.841V210.614C201.366 210.682 201.241 210.744 201.048 210.801C200.859 210.854 200.639 210.902 200.389 210.943C200.143 210.981 199.902 211.015 199.668 211.045C199.437 211.072 199.249 211.095 199.105 211.114C198.757 211.159 198.431 211.233 198.128 211.335C197.829 211.434 197.586 211.583 197.401 211.784C197.219 211.981 197.128 212.25 197.128 212.591C197.128 213.057 197.3 213.409 197.645 213.648C197.993 213.883 198.435 214 198.969 214ZM206.553 209.75V215H205.212V206.273H206.507V207.636H206.621C206.825 207.193 207.136 206.837 207.553 206.568C207.969 206.295 208.507 206.159 209.166 206.159C209.757 206.159 210.274 206.28 210.717 206.523C211.161 206.761 211.505 207.125 211.751 207.614C211.998 208.098 212.121 208.712 212.121 209.455V215H210.78V209.545C210.78 208.86 210.602 208.326 210.246 207.943C209.89 207.557 209.401 207.364 208.78 207.364C208.352 207.364 207.969 207.456 207.632 207.642C207.299 207.828 207.036 208.098 206.842 208.455C206.649 208.811 206.553 209.242 206.553 209.75ZM219.071 215V206.273H220.412V215H219.071ZM219.753 204.818C219.491 204.818 219.266 204.729 219.077 204.551C218.891 204.373 218.798 204.159 218.798 203.909C218.798 203.659 218.891 203.445 219.077 203.267C219.266 203.089 219.491 203 219.753 203C220.014 203 220.238 203.089 220.423 203.267C220.613 203.445 220.707 203.659 220.707 203.909C220.707 204.159 220.613 204.373 220.423 204.551C220.238 204.729 220.014 204.818 219.753 204.818ZM224.209 209.75V215H222.868V206.273H224.163V207.636H224.277C224.482 207.193 224.792 206.837 225.209 206.568C225.625 206.295 226.163 206.159 226.822 206.159C227.413 206.159 227.93 206.28 228.374 206.523C228.817 206.761 229.161 207.125 229.408 207.614C229.654 208.098 229.777 208.712 229.777 209.455V215H228.436V209.545C228.436 208.86 228.258 208.326 227.902 207.943C227.546 207.557 227.057 207.364 226.436 207.364C226.008 207.364 225.625 207.456 225.288 207.642C224.955 207.828 224.692 208.098 224.499 208.455C224.305 208.811 224.209 209.242 224.209 209.75ZM236.114 206.273V207.409H231.409V206.273H236.114ZM232.818 215V205.068C232.818 204.568 232.936 204.152 233.17 203.818C233.405 203.485 233.71 203.235 234.085 203.068C234.46 202.902 234.856 202.818 235.273 202.818C235.602 202.818 235.871 202.845 236.08 202.898C236.288 202.951 236.443 203 236.545 203.045L236.159 204.205C236.091 204.182 235.996 204.153 235.875 204.119C235.758 204.085 235.602 204.068 235.409 204.068C234.966 204.068 234.646 204.18 234.449 204.403C234.256 204.627 234.159 204.955 234.159 205.386V215H232.818ZM237.993 215V206.273H239.334V215H237.993ZM238.675 204.818C238.413 204.818 238.188 204.729 237.999 204.551C237.813 204.373 237.72 204.159 237.72 203.909C237.72 203.659 237.813 203.445 237.999 203.267C238.188 203.089 238.413 203 238.675 203C238.936 203 239.16 203.089 239.345 203.267C239.535 203.445 239.629 203.659 239.629 203.909C239.629 204.159 239.535 204.373 239.345 204.551C239.16 204.729 238.936 204.818 238.675 204.818ZM243.131 209.75V215H241.79V206.273H243.085V207.636H243.199C243.403 207.193 243.714 206.837 244.131 206.568C244.547 206.295 245.085 206.159 245.744 206.159C246.335 206.159 246.852 206.28 247.295 206.523C247.739 206.761 248.083 207.125 248.33 207.614C248.576 208.098 248.699 208.712 248.699 209.455V215H247.358V209.545C247.358 208.86 247.18 208.326 246.824 207.943C246.468 207.557 245.979 207.364 245.358 207.364C244.93 207.364 244.547 207.456 244.21 207.642C243.877 207.828 243.614 208.098 243.42 208.455C243.227 208.811 243.131 209.242 243.131 209.75ZM251.149 215V206.273H252.49V215H251.149ZM251.831 204.818C251.57 204.818 251.344 204.729 251.155 204.551C250.969 204.373 250.876 204.159 250.876 203.909C250.876 203.659 250.969 203.445 251.155 203.267C251.344 203.089 251.57 203 251.831 203C252.092 203 252.316 203.089 252.501 203.267C252.691 203.445 252.786 203.659 252.786 203.909C252.786 204.159 252.691 204.373 252.501 204.551C252.316 204.729 252.092 204.818 251.831 204.818ZM258.741 206.273V207.409H254.219V206.273H258.741ZM255.537 204.182H256.878V212.5C256.878 212.879 256.933 213.163 257.043 213.352C257.156 213.538 257.3 213.663 257.474 213.727C257.652 213.788 257.84 213.818 258.037 213.818C258.185 213.818 258.306 213.811 258.401 213.795C258.495 213.777 258.571 213.761 258.628 213.75L258.901 214.955C258.81 214.989 258.683 215.023 258.52 215.057C258.357 215.095 258.151 215.114 257.901 215.114C257.522 215.114 257.151 215.032 256.787 214.869C256.427 214.706 256.128 214.458 255.889 214.125C255.654 213.792 255.537 213.371 255.537 212.864V204.182ZM264.324 215.182C263.483 215.182 262.758 214.996 262.148 214.625C261.542 214.25 261.074 213.727 260.744 213.057C260.419 212.383 260.256 211.598 260.256 210.705C260.256 209.811 260.419 209.023 260.744 208.341C261.074 207.655 261.532 207.121 262.119 206.739C262.71 206.352 263.4 206.159 264.188 206.159C264.642 206.159 265.091 206.235 265.534 206.386C265.977 206.538 266.381 206.784 266.744 207.125C267.108 207.462 267.398 207.909 267.614 208.466C267.83 209.023 267.938 209.708 267.938 210.523V211.091H261.21V209.932H266.574C266.574 209.439 266.475 209 266.278 208.614C266.085 208.227 265.809 207.922 265.449 207.699C265.093 207.475 264.672 207.364 264.188 207.364C263.653 207.364 263.191 207.496 262.801 207.761C262.415 208.023 262.117 208.364 261.909 208.784C261.701 209.205 261.597 209.655 261.597 210.136V210.909C261.597 211.568 261.71 212.127 261.938 212.585C262.169 213.04 262.489 213.386 262.898 213.625C263.307 213.86 263.782 213.977 264.324 213.977C264.676 213.977 264.994 213.928 265.278 213.83C265.566 213.727 265.814 213.576 266.023 213.375C266.231 213.17 266.392 212.917 266.506 212.614L267.801 212.977C267.665 213.417 267.436 213.803 267.114 214.136C266.792 214.466 266.394 214.723 265.92 214.909C265.447 215.091 264.915 215.182 264.324 215.182ZM275.818 203.364V215H274.477V203.364H275.818ZM281.82 215.182C281.032 215.182 280.34 214.994 279.746 214.619C279.155 214.244 278.693 213.72 278.359 213.045C278.03 212.371 277.865 211.583 277.865 210.682C277.865 209.773 278.03 208.979 278.359 208.301C278.693 207.623 279.155 207.097 279.746 206.722C280.34 206.347 281.032 206.159 281.82 206.159C282.607 206.159 283.297 206.347 283.888 206.722C284.482 207.097 284.945 207.623 285.274 208.301C285.607 208.979 285.774 209.773 285.774 210.682C285.774 211.583 285.607 212.371 285.274 213.045C284.945 213.72 284.482 214.244 283.888 214.619C283.297 214.994 282.607 215.182 281.82 215.182ZM281.82 213.977C282.418 213.977 282.911 213.824 283.297 213.517C283.683 213.21 283.969 212.807 284.155 212.307C284.34 211.807 284.433 211.265 284.433 210.682C284.433 210.098 284.34 209.555 284.155 209.051C283.969 208.547 283.683 208.14 283.297 207.83C282.911 207.519 282.418 207.364 281.82 207.364C281.221 207.364 280.729 207.519 280.342 207.83C279.956 208.14 279.67 208.547 279.484 209.051C279.299 209.555 279.206 210.098 279.206 210.682C279.206 211.265 279.299 211.807 279.484 212.307C279.67 212.807 279.956 213.21 280.342 213.517C280.729 213.824 281.221 213.977 281.82 213.977ZM291.366 215.182C290.579 215.182 289.887 214.994 289.293 214.619C288.702 214.244 288.24 213.72 287.906 213.045C287.577 212.371 287.412 211.583 287.412 210.682C287.412 209.773 287.577 208.979 287.906 208.301C288.24 207.623 288.702 207.097 289.293 206.722C289.887 206.347 290.579 206.159 291.366 206.159C292.154 206.159 292.844 206.347 293.435 206.722C294.029 207.097 294.491 207.623 294.821 208.301C295.154 208.979 295.321 209.773 295.321 210.682C295.321 211.583 295.154 212.371 294.821 213.045C294.491 213.72 294.029 214.244 293.435 214.619C292.844 214.994 292.154 215.182 291.366 215.182ZM291.366 213.977C291.965 213.977 292.457 213.824 292.844 213.517C293.23 213.21 293.516 212.807 293.702 212.307C293.887 211.807 293.98 211.265 293.98 210.682C293.98 210.098 293.887 209.555 293.702 209.051C293.516 208.547 293.23 208.14 292.844 207.83C292.457 207.519 291.965 207.364 291.366 207.364C290.768 207.364 290.276 207.519 289.889 207.83C289.503 208.14 289.217 208.547 289.031 209.051C288.846 209.555 288.753 210.098 288.753 210.682C288.753 211.265 288.846 211.807 289.031 212.307C289.217 212.807 289.503 213.21 289.889 213.517C290.276 213.824 290.768 213.977 291.366 213.977ZM297.368 218.273V206.273H298.663V207.659H298.822C298.921 207.508 299.057 207.314 299.232 207.08C299.41 206.841 299.663 206.629 299.993 206.443C300.326 206.254 300.777 206.159 301.345 206.159C302.08 206.159 302.728 206.343 303.288 206.71C303.849 207.078 304.286 207.598 304.601 208.273C304.915 208.947 305.072 209.742 305.072 210.659C305.072 211.583 304.915 212.384 304.601 213.062C304.286 213.737 303.851 214.259 303.294 214.631C302.737 214.998 302.095 215.182 301.368 215.182C300.807 215.182 300.358 215.089 300.021 214.903C299.684 214.714 299.425 214.5 299.243 214.261C299.061 214.019 298.921 213.818 298.822 213.659H298.709V218.273H297.368ZM298.686 210.636C298.686 211.295 298.783 211.877 298.976 212.381C299.169 212.881 299.451 213.273 299.822 213.557C300.194 213.837 300.648 213.977 301.186 213.977C301.747 213.977 302.214 213.83 302.589 213.534C302.968 213.235 303.252 212.833 303.442 212.33C303.635 211.822 303.732 211.258 303.732 210.636C303.732 210.023 303.637 209.47 303.447 208.977C303.262 208.481 302.98 208.089 302.601 207.801C302.226 207.509 301.754 207.364 301.186 207.364C300.641 207.364 300.182 207.502 299.811 207.778C299.44 208.051 299.16 208.434 298.97 208.926C298.781 209.415 298.686 209.985 298.686 210.636ZM308.868 211.727V211.659C308.875 210.936 308.951 210.36 309.095 209.932C309.239 209.504 309.444 209.157 309.709 208.892C309.974 208.627 310.292 208.383 310.663 208.159C310.887 208.023 311.088 207.862 311.266 207.676C311.444 207.487 311.584 207.269 311.686 207.023C311.792 206.777 311.845 206.504 311.845 206.205C311.845 205.833 311.758 205.511 311.584 205.239C311.41 204.966 311.177 204.756 310.885 204.608C310.593 204.46 310.269 204.386 309.913 204.386C309.603 204.386 309.304 204.451 309.016 204.58C308.728 204.708 308.487 204.911 308.294 205.188C308.101 205.464 307.989 205.826 307.959 206.273H306.527C306.557 205.629 306.724 205.078 307.027 204.619C307.334 204.161 307.737 203.811 308.237 203.568C308.741 203.326 309.3 203.205 309.913 203.205C310.58 203.205 311.16 203.337 311.652 203.602C312.148 203.867 312.531 204.231 312.8 204.693C313.072 205.155 313.209 205.682 313.209 206.273C313.209 206.689 313.144 207.066 313.016 207.403C312.891 207.741 312.709 208.042 312.47 208.307C312.235 208.572 311.951 208.807 311.618 209.011C311.285 209.22 311.018 209.439 310.817 209.67C310.616 209.898 310.47 210.169 310.379 210.483C310.288 210.797 310.239 211.189 310.232 211.659V211.727H308.868ZM309.595 215.091C309.315 215.091 309.074 214.991 308.874 214.79C308.673 214.589 308.572 214.348 308.572 214.068C308.572 213.788 308.673 213.547 308.874 213.347C309.074 213.146 309.315 213.045 309.595 213.045C309.875 213.045 310.116 213.146 310.317 213.347C310.518 213.547 310.618 213.788 310.618 214.068C310.618 214.254 310.571 214.424 310.476 214.58C310.385 214.735 310.262 214.86 310.107 214.955C309.955 215.045 309.785 215.091 309.595 215.091ZM31.7727 223.614V222.364H40.5V223.614H36.8409V234H35.4318V223.614H31.7727ZM43.8338 228.75V234H42.4929V222.364H43.8338V226.636H43.9474C44.152 226.186 44.4588 225.828 44.8679 225.562C45.2808 225.294 45.83 225.159 46.5156 225.159C47.1103 225.159 47.6312 225.278 48.0781 225.517C48.5251 225.752 48.8717 226.114 49.1179 226.602C49.3679 227.087 49.4929 227.705 49.4929 228.455V234H48.152V228.545C48.152 227.852 47.9721 227.316 47.6122 226.938C47.2562 226.555 46.7618 226.364 46.1293 226.364C45.6899 226.364 45.2959 226.456 44.9474 226.642C44.6027 226.828 44.33 227.098 44.1293 227.455C43.9323 227.811 43.8338 228.242 43.8338 228.75ZM54.5142 234.205C53.9612 234.205 53.4593 234.1 53.0085 233.892C52.5578 233.68 52.1998 233.375 51.9347 232.977C51.6695 232.576 51.5369 232.091 51.5369 231.523C51.5369 231.023 51.6354 230.617 51.8324 230.307C52.0294 229.992 52.2926 229.746 52.6222 229.568C52.9517 229.39 53.3153 229.258 53.7131 229.17C54.1146 229.08 54.518 229.008 54.9233 228.955C55.4536 228.886 55.8835 228.835 56.2131 228.801C56.5464 228.763 56.7888 228.701 56.9403 228.614C57.0956 228.527 57.1733 228.375 57.1733 228.159V228.114C57.1733 227.553 57.0199 227.117 56.7131 226.807C56.41 226.496 55.9498 226.341 55.3324 226.341C54.6922 226.341 54.1903 226.481 53.8267 226.761C53.4631 227.042 53.2074 227.341 53.0597 227.659L51.7869 227.205C52.0142 226.674 52.3172 226.261 52.696 225.966C53.0786 225.667 53.4953 225.458 53.946 225.341C54.4006 225.22 54.8475 225.159 55.2869 225.159C55.5672 225.159 55.8892 225.193 56.2528 225.261C56.6203 225.326 56.9744 225.46 57.3153 225.665C57.66 225.869 57.946 226.178 58.1733 226.591C58.4006 227.004 58.5142 227.557 58.5142 228.25V234H57.1733V232.818H57.1051C57.0142 233.008 56.8627 233.21 56.6506 233.426C56.4384 233.642 56.1563 233.826 55.804 233.977C55.4517 234.129 55.0218 234.205 54.5142 234.205ZM54.7188 233C55.2491 233 55.696 232.896 56.0597 232.688C56.4271 232.479 56.7036 232.21 56.8892 231.881C57.0786 231.551 57.1733 231.205 57.1733 230.841V229.614C57.1165 229.682 56.9915 229.744 56.7983 229.801C56.6089 229.854 56.3892 229.902 56.1392 229.943C55.893 229.981 55.6525 230.015 55.4176 230.045C55.1866 230.072 54.9991 230.095 54.8551 230.114C54.5066 230.159 54.1809 230.233 53.8778 230.335C53.5786 230.434 53.3362 230.583 53.1506 230.784C52.9688 230.981 52.8778 231.25 52.8778 231.591C52.8778 232.057 53.0502 232.409 53.3949 232.648C53.7434 232.883 54.1847 233 54.7188 233ZM64.7571 225.273V226.409H60.2344V225.273H64.7571ZM61.5526 223.182H62.8935V231.5C62.8935 231.879 62.9484 232.163 63.0582 232.352C63.1719 232.538 63.3158 232.663 63.4901 232.727C63.6681 232.788 63.8556 232.818 64.0526 232.818C64.2003 232.818 64.3215 232.811 64.4162 232.795C64.5109 232.777 64.5866 232.761 64.6435 232.75L64.9162 233.955C64.8253 233.989 64.6984 234.023 64.5355 234.057C64.3726 234.095 64.1662 234.114 63.9162 234.114C63.5374 234.114 63.1662 234.032 62.8026 233.869C62.4427 233.706 62.1435 233.458 61.9048 233.125C61.67 232.792 61.5526 232.371 61.5526 231.864V223.182ZM68.4091 222.364V223.386C68.4091 223.697 68.3523 224.028 68.2386 224.381C68.1288 224.729 67.9659 225.068 67.75 225.398C67.5379 225.723 67.2803 226.008 66.9773 226.25L66.25 225.659C66.4886 225.318 66.6951 224.964 66.8693 224.597C67.0473 224.225 67.1364 223.83 67.1364 223.409V222.364H68.4091ZM75.1278 227.227L73.9233 227.568C73.8475 227.367 73.7358 227.172 73.5881 226.983C73.4441 226.79 73.2472 226.631 72.9972 226.506C72.7472 226.381 72.4271 226.318 72.0369 226.318C71.5028 226.318 71.0578 226.441 70.7017 226.688C70.3494 226.93 70.1733 227.239 70.1733 227.614C70.1733 227.947 70.2945 228.21 70.5369 228.403C70.7794 228.597 71.1581 228.758 71.6733 228.886L72.9688 229.205C73.7491 229.394 74.3305 229.684 74.7131 230.074C75.0956 230.46 75.2869 230.958 75.2869 231.568C75.2869 232.068 75.143 232.515 74.8551 232.909C74.571 233.303 74.1733 233.614 73.6619 233.841C73.1506 234.068 72.5559 234.182 71.8778 234.182C70.9877 234.182 70.2509 233.989 69.6676 233.602C69.0843 233.216 68.715 232.652 68.5597 231.909L69.8324 231.591C69.9536 232.061 70.1828 232.413 70.5199 232.648C70.8608 232.883 71.3059 233 71.8551 233C72.4801 233 72.9763 232.867 73.3438 232.602C73.715 232.333 73.9006 232.011 73.9006 231.636C73.9006 231.333 73.7945 231.08 73.5824 230.875C73.3703 230.667 73.0445 230.511 72.6051 230.409L71.1506 230.068C70.3513 229.879 69.7642 229.585 69.3892 229.188C69.018 228.786 68.8324 228.284 68.8324 227.682C68.8324 227.189 68.9706 226.754 69.2472 226.375C69.5275 225.996 69.9081 225.699 70.3892 225.483C70.8741 225.267 71.4233 225.159 72.0369 225.159C72.9006 225.159 73.5786 225.348 74.071 225.727C74.5672 226.106 74.9195 226.606 75.1278 227.227ZM85.6009 225.273V226.409H81.0781V225.273H85.6009ZM82.3963 223.182H83.7372V231.5C83.7372 231.879 83.7921 232.163 83.902 232.352C84.0156 232.538 84.1596 232.663 84.3338 232.727C84.5118 232.788 84.6993 232.818 84.8963 232.818C85.044 232.818 85.1652 232.811 85.2599 232.795C85.3546 232.777 85.4304 232.761 85.4872 232.75L85.7599 233.955C85.669 233.989 85.5421 234.023 85.3793 234.057C85.2164 234.095 85.0099 234.114 84.7599 234.114C84.3812 234.114 84.0099 234.032 83.6463 233.869C83.2865 233.706 82.9872 233.458 82.7486 233.125C82.5137 232.792 82.3963 232.371 82.3963 231.864V223.182ZM89.1463 228.75V234H87.8054V222.364H89.1463V226.636H89.2599C89.4645 226.186 89.7713 225.828 90.1804 225.562C90.5933 225.294 91.1425 225.159 91.8281 225.159C92.4228 225.159 92.9437 225.278 93.3906 225.517C93.8376 225.752 94.1842 226.114 94.4304 226.602C94.6804 227.087 94.8054 227.705 94.8054 228.455V234H93.4645V228.545C93.4645 227.852 93.2846 227.316 92.9247 226.938C92.5687 226.555 92.0743 226.364 91.4418 226.364C91.0024 226.364 90.6084 226.456 90.2599 226.642C89.9152 226.828 89.6425 227.098 89.4418 227.455C89.2448 227.811 89.1463 228.242 89.1463 228.75ZM100.918 234.182C100.077 234.182 99.3513 233.996 98.7415 233.625C98.1354 233.25 97.6676 232.727 97.3381 232.057C97.0123 231.383 96.8494 230.598 96.8494 229.705C96.8494 228.811 97.0123 228.023 97.3381 227.341C97.6676 226.655 98.1259 226.121 98.7131 225.739C99.304 225.352 99.9934 225.159 100.781 225.159C101.236 225.159 101.685 225.235 102.128 225.386C102.571 225.538 102.974 225.784 103.338 226.125C103.702 226.462 103.991 226.909 104.207 227.466C104.423 228.023 104.531 228.708 104.531 229.523V230.091H97.804V228.932H103.168C103.168 228.439 103.069 228 102.872 227.614C102.679 227.227 102.402 226.922 102.043 226.699C101.687 226.475 101.266 226.364 100.781 226.364C100.247 226.364 99.785 226.496 99.3949 226.761C99.0085 227.023 98.7112 227.364 98.5028 227.784C98.2945 228.205 98.1903 228.655 98.1903 229.136V229.909C98.1903 230.568 98.304 231.127 98.5312 231.585C98.7623 232.04 99.0824 232.386 99.4915 232.625C99.9006 232.86 100.376 232.977 100.918 232.977C101.27 232.977 101.588 232.928 101.872 232.83C102.16 232.727 102.408 232.576 102.616 232.375C102.825 232.17 102.986 231.917 103.099 231.614L104.395 231.977C104.259 232.417 104.029 232.803 103.707 233.136C103.385 233.466 102.988 233.723 102.514 233.909C102.041 234.091 101.509 234.182 100.918 234.182ZM114.866 225.273V226.409H110.344V225.273H114.866ZM111.662 223.182H113.003V231.5C113.003 231.879 113.058 232.163 113.168 232.352C113.281 232.538 113.425 232.663 113.599 232.727C113.777 232.788 113.965 232.818 114.162 232.818C114.31 232.818 114.431 232.811 114.526 232.795C114.62 232.777 114.696 232.761 114.753 232.75L115.026 233.955C114.935 233.989 114.808 234.023 114.645 234.057C114.482 234.095 114.276 234.114 114.026 234.114C113.647 234.114 113.276 234.032 112.912 233.869C112.552 233.706 112.253 233.458 112.014 233.125C111.779 232.792 111.662 232.371 111.662 231.864V223.182ZM120.449 234.182C119.608 234.182 118.883 233.996 118.273 233.625C117.667 233.25 117.199 232.727 116.869 232.057C116.544 231.383 116.381 230.598 116.381 229.705C116.381 228.811 116.544 228.023 116.869 227.341C117.199 226.655 117.657 226.121 118.244 225.739C118.835 225.352 119.525 225.159 120.312 225.159C120.767 225.159 121.216 225.235 121.659 225.386C122.102 225.538 122.506 225.784 122.869 226.125C123.233 226.462 123.523 226.909 123.739 227.466C123.955 228.023 124.062 228.708 124.062 229.523V230.091H117.335V228.932H122.699C122.699 228.439 122.6 228 122.403 227.614C122.21 227.227 121.934 226.922 121.574 226.699C121.218 226.475 120.797 226.364 120.312 226.364C119.778 226.364 119.316 226.496 118.926 226.761C118.54 227.023 118.242 227.364 118.034 227.784C117.826 228.205 117.722 228.655 117.722 229.136V229.909C117.722 230.568 117.835 231.127 118.062 231.585C118.294 232.04 118.614 232.386 119.023 232.625C119.432 232.86 119.907 232.977 120.449 232.977C120.801 232.977 121.119 232.928 121.403 232.83C121.691 232.727 121.939 232.576 122.148 232.375C122.356 232.17 122.517 231.917 122.631 231.614L123.926 231.977C123.79 232.417 123.561 232.803 123.239 233.136C122.917 233.466 122.519 233.723 122.045 233.909C121.572 234.091 121.04 234.182 120.449 234.182ZM132.284 227.227L131.08 227.568C131.004 227.367 130.892 227.172 130.744 226.983C130.6 226.79 130.403 226.631 130.153 226.506C129.903 226.381 129.583 226.318 129.193 226.318C128.659 226.318 128.214 226.441 127.858 226.688C127.506 226.93 127.33 227.239 127.33 227.614C127.33 227.947 127.451 228.21 127.693 228.403C127.936 228.597 128.314 228.758 128.83 228.886L130.125 229.205C130.905 229.394 131.487 229.684 131.869 230.074C132.252 230.46 132.443 230.958 132.443 231.568C132.443 232.068 132.299 232.515 132.011 232.909C131.727 233.303 131.33 233.614 130.818 233.841C130.307 234.068 129.712 234.182 129.034 234.182C128.144 234.182 127.407 233.989 126.824 233.602C126.241 233.216 125.871 232.652 125.716 231.909L126.989 231.591C127.11 232.061 127.339 232.413 127.676 232.648C128.017 232.883 128.462 233 129.011 233C129.636 233 130.133 232.867 130.5 232.602C130.871 232.333 131.057 232.011 131.057 231.636C131.057 231.333 130.951 231.08 130.739 230.875C130.527 230.667 130.201 230.511 129.761 230.409L128.307 230.068C127.508 229.879 126.92 229.585 126.545 229.188C126.174 228.786 125.989 228.284 125.989 227.682C125.989 227.189 126.127 226.754 126.403 226.375C126.684 225.996 127.064 225.699 127.545 225.483C128.03 225.267 128.58 225.159 129.193 225.159C130.057 225.159 130.735 225.348 131.227 225.727C131.723 226.106 132.076 226.606 132.284 227.227ZM138.257 225.273V226.409H133.734V225.273H138.257ZM135.053 223.182H136.393V231.5C136.393 231.879 136.448 232.163 136.558 232.352C136.672 232.538 136.816 232.663 136.99 232.727C137.168 232.788 137.356 232.818 137.553 232.818C137.7 232.818 137.821 232.811 137.916 232.795C138.011 232.777 138.087 232.761 138.143 232.75L138.416 233.955C138.325 233.989 138.198 234.023 138.036 234.057C137.873 234.095 137.666 234.114 137.416 234.114C137.037 234.114 136.666 234.032 136.303 233.869C135.943 233.706 135.643 233.458 135.405 233.125C135.17 232.792 135.053 232.371 135.053 231.864V223.182ZM141.251 234.091C140.971 234.091 140.731 233.991 140.53 233.79C140.329 233.589 140.229 233.348 140.229 233.068C140.229 232.788 140.329 232.547 140.53 232.347C140.731 232.146 140.971 232.045 141.251 232.045C141.532 232.045 141.772 232.146 141.973 232.347C142.174 232.547 142.274 232.788 142.274 233.068C142.274 233.254 142.227 233.424 142.132 233.58C142.041 233.735 141.918 233.86 141.763 233.955C141.611 234.045 141.441 234.091 141.251 234.091Z" fill="#111101"/>
<path d="M240.472 380V368.364H244.403C245.313 368.364 246.059 368.519 246.642 368.83C247.225 369.136 247.657 369.559 247.938 370.097C248.218 370.634 248.358 371.246 248.358 371.932C248.358 372.617 248.218 373.225 247.938 373.756C247.657 374.286 247.227 374.703 246.648 375.006C246.068 375.305 245.328 375.455 244.426 375.455H241.244V374.182H244.381C245.002 374.182 245.502 374.091 245.881 373.909C246.263 373.727 246.54 373.47 246.71 373.136C246.884 372.799 246.972 372.398 246.972 371.932C246.972 371.466 246.884 371.059 246.71 370.71C246.536 370.362 246.258 370.093 245.875 369.903C245.492 369.71 244.987 369.614 244.358 369.614H241.881V380H240.472ZM245.949 374.773L248.812 380H247.176L244.358 374.773H245.949ZM254.089 380.182C253.249 380.182 252.523 379.996 251.913 379.625C251.307 379.25 250.839 378.727 250.51 378.057C250.184 377.383 250.021 376.598 250.021 375.705C250.021 374.811 250.184 374.023 250.51 373.341C250.839 372.655 251.298 372.121 251.885 371.739C252.476 371.352 253.165 371.159 253.953 371.159C254.408 371.159 254.857 371.235 255.3 371.386C255.743 371.538 256.146 371.784 256.51 372.125C256.874 372.462 257.163 372.909 257.379 373.466C257.595 374.023 257.703 374.708 257.703 375.523V376.091H250.976V374.932H256.339C256.339 374.439 256.241 374 256.044 373.614C255.851 373.227 255.574 372.922 255.214 372.699C254.858 372.475 254.438 372.364 253.953 372.364C253.419 372.364 252.957 372.496 252.567 372.761C252.18 373.023 251.883 373.364 251.675 373.784C251.466 374.205 251.362 374.655 251.362 375.136V375.909C251.362 376.568 251.476 377.127 251.703 377.585C251.934 378.04 252.254 378.386 252.663 378.625C253.072 378.86 253.548 378.977 254.089 378.977C254.442 378.977 254.76 378.928 255.044 378.83C255.332 378.727 255.58 378.576 255.788 378.375C255.997 378.17 256.158 377.917 256.271 377.614L257.567 377.977C257.43 378.417 257.201 378.803 256.879 379.136C256.557 379.466 256.16 379.723 255.686 379.909C255.213 380.091 254.68 380.182 254.089 380.182ZM262.311 380.205C261.758 380.205 261.256 380.1 260.805 379.892C260.355 379.68 259.997 379.375 259.732 378.977C259.466 378.576 259.334 378.091 259.334 377.523C259.334 377.023 259.432 376.617 259.629 376.307C259.826 375.992 260.089 375.746 260.419 375.568C260.749 375.39 261.112 375.258 261.51 375.17C261.911 375.08 262.315 375.008 262.72 374.955C263.25 374.886 263.68 374.835 264.01 374.801C264.343 374.763 264.586 374.701 264.737 374.614C264.893 374.527 264.97 374.375 264.97 374.159V374.114C264.97 373.553 264.817 373.117 264.51 372.807C264.207 372.496 263.747 372.341 263.129 372.341C262.489 372.341 261.987 372.481 261.624 372.761C261.26 373.042 261.004 373.341 260.857 373.659L259.584 373.205C259.811 372.674 260.114 372.261 260.493 371.966C260.875 371.667 261.292 371.458 261.743 371.341C262.197 371.22 262.644 371.159 263.084 371.159C263.364 371.159 263.686 371.193 264.05 371.261C264.417 371.326 264.771 371.46 265.112 371.665C265.457 371.869 265.743 372.178 265.97 372.591C266.197 373.004 266.311 373.557 266.311 374.25V380H264.97V378.818H264.902C264.811 379.008 264.66 379.21 264.447 379.426C264.235 379.642 263.953 379.826 263.601 379.977C263.249 380.129 262.819 380.205 262.311 380.205ZM262.516 379C263.046 379 263.493 378.896 263.857 378.688C264.224 378.479 264.5 378.21 264.686 377.881C264.875 377.551 264.97 377.205 264.97 376.841V375.614C264.913 375.682 264.788 375.744 264.595 375.801C264.406 375.854 264.186 375.902 263.936 375.943C263.69 375.981 263.449 376.015 263.214 376.045C262.983 376.072 262.796 376.095 262.652 376.114C262.304 376.159 261.978 376.233 261.675 376.335C261.375 376.434 261.133 376.583 260.947 376.784C260.766 376.981 260.675 377.25 260.675 377.591C260.675 378.057 260.847 378.409 261.192 378.648C261.54 378.883 261.982 379 262.516 379ZM272.054 380.182C271.327 380.182 270.685 379.998 270.128 379.631C269.571 379.259 269.135 378.737 268.821 378.062C268.507 377.384 268.349 376.583 268.349 375.659C268.349 374.742 268.507 373.947 268.821 373.273C269.135 372.598 269.573 372.078 270.134 371.71C270.694 371.343 271.342 371.159 272.077 371.159C272.645 371.159 273.094 371.254 273.423 371.443C273.757 371.629 274.01 371.841 274.185 372.08C274.363 372.314 274.501 372.508 274.599 372.659H274.713V368.364H276.054V380H274.759V378.659H274.599C274.501 378.818 274.361 379.019 274.179 379.261C273.997 379.5 273.738 379.714 273.401 379.903C273.063 380.089 272.615 380.182 272.054 380.182ZM272.236 378.977C272.774 378.977 273.228 378.837 273.599 378.557C273.971 378.273 274.253 377.881 274.446 377.381C274.639 376.877 274.736 376.295 274.736 375.636C274.736 374.985 274.641 374.415 274.452 373.926C274.262 373.434 273.982 373.051 273.611 372.778C273.24 372.502 272.781 372.364 272.236 372.364C271.668 372.364 271.194 372.509 270.815 372.801C270.44 373.089 270.158 373.481 269.969 373.977C269.783 374.47 269.69 375.023 269.69 375.636C269.69 376.258 269.785 376.822 269.974 377.33C270.168 377.833 270.452 378.235 270.827 378.534C271.205 378.83 271.675 378.977 272.236 378.977ZM283.196 380V371.273H284.491V372.636H284.605C284.787 372.17 285.08 371.809 285.486 371.551C285.891 371.29 286.378 371.159 286.946 371.159C287.522 371.159 288.001 371.29 288.384 371.551C288.77 371.809 289.071 372.17 289.287 372.636H289.378C289.601 372.186 289.937 371.828 290.384 371.562C290.83 371.294 291.366 371.159 291.991 371.159C292.772 371.159 293.41 371.403 293.906 371.892C294.402 372.377 294.651 373.133 294.651 374.159V380H293.31V374.159C293.31 373.515 293.134 373.055 292.781 372.778C292.429 372.502 292.014 372.364 291.537 372.364C290.923 372.364 290.448 372.549 290.111 372.92C289.774 373.288 289.605 373.754 289.605 374.318V380H288.241V374.023C288.241 373.527 288.08 373.127 287.759 372.824C287.437 372.517 287.022 372.364 286.514 372.364C286.166 372.364 285.84 372.456 285.537 372.642C285.238 372.828 284.995 373.085 284.81 373.415C284.628 373.741 284.537 374.117 284.537 374.545V380H283.196ZM300.761 380.182C299.92 380.182 299.195 379.996 298.585 379.625C297.979 379.25 297.511 378.727 297.182 378.057C296.856 377.383 296.693 376.598 296.693 375.705C296.693 374.811 296.856 374.023 297.182 373.341C297.511 372.655 297.97 372.121 298.557 371.739C299.148 371.352 299.837 371.159 300.625 371.159C301.08 371.159 301.528 371.235 301.972 371.386C302.415 371.538 302.818 371.784 303.182 372.125C303.545 372.462 303.835 372.909 304.051 373.466C304.267 374.023 304.375 374.708 304.375 375.523V376.091H297.648V374.932H303.011C303.011 374.439 302.913 374 302.716 373.614C302.523 373.227 302.246 372.922 301.886 372.699C301.53 372.475 301.11 372.364 300.625 372.364C300.091 372.364 299.629 372.496 299.239 372.761C298.852 373.023 298.555 373.364 298.347 373.784C298.138 374.205 298.034 374.655 298.034 375.136V375.909C298.034 376.568 298.148 377.127 298.375 377.585C298.606 378.04 298.926 378.386 299.335 378.625C299.744 378.86 300.22 378.977 300.761 378.977C301.114 378.977 301.432 378.928 301.716 378.83C302.004 378.727 302.252 378.576 302.46 378.375C302.669 378.17 302.83 377.917 302.943 377.614L304.239 377.977C304.102 378.417 303.873 378.803 303.551 379.136C303.229 379.466 302.831 379.723 302.358 379.909C301.884 380.091 301.352 380.182 300.761 380.182ZM310.915 380V371.273H312.256V380H310.915ZM311.597 369.818C311.335 369.818 311.11 369.729 310.92 369.551C310.735 369.373 310.642 369.159 310.642 368.909C310.642 368.659 310.735 368.445 310.92 368.267C311.11 368.089 311.335 368 311.597 368C311.858 368 312.081 368.089 312.267 368.267C312.456 368.445 312.551 368.659 312.551 368.909C312.551 369.159 312.456 369.373 312.267 369.551C312.081 369.729 311.858 369.818 311.597 369.818ZM318.598 371.273V372.409H313.893V371.273H318.598ZM315.303 380V370.068C315.303 369.568 315.42 369.152 315.655 368.818C315.89 368.485 316.195 368.235 316.57 368.068C316.945 367.902 317.34 367.818 317.757 367.818C318.087 367.818 318.356 367.845 318.564 367.898C318.772 367.951 318.928 368 319.03 368.045L318.643 369.205C318.575 369.182 318.481 369.153 318.359 369.119C318.242 369.085 318.087 369.068 317.893 369.068C317.45 369.068 317.13 369.18 316.933 369.403C316.74 369.627 316.643 369.955 316.643 370.386V380H315.303ZM325.841 383.273C325.614 383.273 325.411 383.254 325.233 383.216C325.055 383.182 324.932 383.148 324.864 383.114L325.205 381.932C325.53 382.015 325.818 382.045 326.068 382.023C326.318 382 326.54 381.888 326.733 381.688C326.93 381.491 327.11 381.17 327.273 380.727L327.523 380.045L324.295 371.273H325.75L328.159 378.227H328.25L330.659 371.273H332.114L328.409 381.273C328.242 381.723 328.036 382.097 327.79 382.392C327.544 382.691 327.258 382.913 326.932 383.057C326.61 383.201 326.246 383.273 325.841 383.273ZM337.116 380.182C336.329 380.182 335.637 379.994 335.043 379.619C334.452 379.244 333.99 378.72 333.656 378.045C333.327 377.371 333.162 376.583 333.162 375.682C333.162 374.773 333.327 373.979 333.656 373.301C333.99 372.623 334.452 372.097 335.043 371.722C335.637 371.347 336.329 371.159 337.116 371.159C337.904 371.159 338.594 371.347 339.185 371.722C339.779 372.097 340.241 372.623 340.571 373.301C340.904 373.979 341.071 374.773 341.071 375.682C341.071 376.583 340.904 377.371 340.571 378.045C340.241 378.72 339.779 379.244 339.185 379.619C338.594 379.994 337.904 380.182 337.116 380.182ZM337.116 378.977C337.715 378.977 338.207 378.824 338.594 378.517C338.98 378.21 339.266 377.807 339.452 377.307C339.637 376.807 339.73 376.265 339.73 375.682C339.73 375.098 339.637 374.555 339.452 374.051C339.266 373.547 338.98 373.14 338.594 372.83C338.207 372.519 337.715 372.364 337.116 372.364C336.518 372.364 336.026 372.519 335.639 372.83C335.253 373.14 334.967 373.547 334.781 374.051C334.596 374.555 334.503 375.098 334.503 375.682C334.503 376.265 334.596 376.807 334.781 377.307C334.967 377.807 335.253 378.21 335.639 378.517C336.026 378.824 336.518 378.977 337.116 378.977ZM348.618 376.432V371.273H349.959V380H348.618V378.523H348.527C348.322 378.966 348.004 379.343 347.572 379.653C347.141 379.96 346.595 380.114 345.936 380.114C345.391 380.114 344.906 379.994 344.482 379.756C344.057 379.513 343.724 379.15 343.482 378.665C343.239 378.176 343.118 377.561 343.118 376.818V371.273H344.459V376.727C344.459 377.364 344.637 377.871 344.993 378.25C345.353 378.629 345.811 378.818 346.368 378.818C346.701 378.818 347.04 378.733 347.385 378.562C347.733 378.392 348.025 378.131 348.26 377.778C348.499 377.426 348.618 376.977 348.618 376.432ZM360.46 380.182C359.642 380.182 358.938 379.989 358.347 379.602C357.756 379.216 357.301 378.684 356.983 378.006C356.665 377.328 356.506 376.553 356.506 375.682C356.506 374.795 356.669 374.013 356.994 373.335C357.324 372.653 357.782 372.121 358.369 371.739C358.96 371.352 359.65 371.159 360.438 371.159C361.051 371.159 361.604 371.273 362.097 371.5C362.589 371.727 362.992 372.045 363.307 372.455C363.621 372.864 363.816 373.341 363.892 373.886H362.551C362.449 373.489 362.222 373.136 361.869 372.83C361.521 372.519 361.051 372.364 360.46 372.364C359.938 372.364 359.479 372.5 359.085 372.773C358.695 373.042 358.39 373.422 358.17 373.915C357.955 374.403 357.847 374.977 357.847 375.636C357.847 376.311 357.953 376.898 358.165 377.398C358.381 377.898 358.684 378.286 359.074 378.562C359.468 378.839 359.93 378.977 360.46 378.977C360.809 378.977 361.125 378.917 361.409 378.795C361.693 378.674 361.934 378.5 362.131 378.273C362.328 378.045 362.468 377.773 362.551 377.455H363.892C363.816 377.97 363.629 378.434 363.33 378.847C363.034 379.256 362.642 379.581 362.153 379.824C361.669 380.062 361.104 380.182 360.46 380.182ZM368.42 380.205C367.867 380.205 367.366 380.1 366.915 379.892C366.464 379.68 366.106 379.375 365.841 378.977C365.576 378.576 365.443 378.091 365.443 377.523C365.443 377.023 365.542 376.617 365.739 376.307C365.936 375.992 366.199 375.746 366.528 375.568C366.858 375.39 367.222 375.258 367.619 375.17C368.021 375.08 368.424 375.008 368.83 374.955C369.36 374.886 369.79 374.835 370.119 374.801C370.453 374.763 370.695 374.701 370.847 374.614C371.002 374.527 371.08 374.375 371.08 374.159V374.114C371.08 373.553 370.926 373.117 370.619 372.807C370.316 372.496 369.856 372.341 369.239 372.341C368.598 372.341 368.097 372.481 367.733 372.761C367.369 373.042 367.114 373.341 366.966 373.659L365.693 373.205C365.92 372.674 366.223 372.261 366.602 371.966C366.985 371.667 367.402 371.458 367.852 371.341C368.307 371.22 368.754 371.159 369.193 371.159C369.473 371.159 369.795 371.193 370.159 371.261C370.527 371.326 370.881 371.46 371.222 371.665C371.566 371.869 371.852 372.178 372.08 372.591C372.307 373.004 372.42 373.557 372.42 374.25V380H371.08V378.818H371.011C370.92 379.008 370.769 379.21 370.557 379.426C370.345 379.642 370.063 379.826 369.71 379.977C369.358 380.129 368.928 380.205 368.42 380.205ZM368.625 379C369.155 379 369.602 378.896 369.966 378.688C370.333 378.479 370.61 378.21 370.795 377.881C370.985 377.551 371.08 377.205 371.08 376.841V375.614C371.023 375.682 370.898 375.744 370.705 375.801C370.515 375.854 370.295 375.902 370.045 375.943C369.799 375.981 369.559 376.015 369.324 376.045C369.093 376.072 368.905 376.095 368.761 376.114C368.413 376.159 368.087 376.233 367.784 376.335C367.485 376.434 367.242 376.583 367.057 376.784C366.875 376.981 366.784 377.25 366.784 377.591C366.784 378.057 366.956 378.409 367.301 378.648C367.65 378.883 368.091 379 368.625 379ZM376.209 374.75V380H374.868V371.273H376.163V372.636H376.277C376.482 372.193 376.792 371.837 377.209 371.568C377.625 371.295 378.163 371.159 378.822 371.159C379.413 371.159 379.93 371.28 380.374 371.523C380.817 371.761 381.161 372.125 381.408 372.614C381.654 373.098 381.777 373.712 381.777 374.455V380H380.436V374.545C380.436 373.86 380.258 373.326 379.902 372.943C379.546 372.557 379.057 372.364 378.436 372.364C378.008 372.364 377.625 372.456 377.288 372.642C376.955 372.828 376.692 373.098 376.499 373.455C376.305 373.811 376.209 374.242 376.209 374.75Z" fill="#222222"/>
<path d="M192 172.12H208V156.12H192V172.12Z" fill="#222222"/>
</svg>
